<svg xmlns="http://www.w3.org/2000/svg" xmlns:xlink="http://www.w3.org/1999/xlink" width="657" height="658" viewBox="0 0 657 658">
  <defs>
    <clipPath id="clip-gaza-covid19">
      <rect width="657" height="658"/>
    </clipPath>
  </defs>
  <g id="gaza-covid19" clip-path="url(#clip-gaza-covid19)">
    <rect width="657" height="658" fill="#fff"/>
    <g id="Component_2_1" data-name="Component 2 – 1" transform="translate(99.974 -7.507)" style="isolation: isolate">
      <path id="Path_85" data-name="Path 85" d="M1497.627,272l115.266,89.855-20.3,34.809s-.971,2.92-6.8,4.873-22.994,11.407-26.554,15.965c-3.023,1.938-17.469,2.93-22.325,4.884s-15.538,15.3-18.127,16.606-12.3,8.791-18.451,15.955-10.359,6.512-10.359,6.512-9.645,4.938-13.272,14.327c-.324-.326-11.653,13.675-11.653,13.675s-2.266,3.256-4.855,6.838-13.919,13.024-13.919,13.024h-3.237v3.907l-11.006,11.4a22.754,22.754,0,0,0-18.127,12.7,11.993,11.993,0,0,0-1.942,5.535s-25.573,27.676-33.342,29.63c-.648.977-8.74,8.791-12.624,10.094s-2.913,4.233-3.885,5.535a28.533,28.533,0,0,1-3.237,3.256s-4.856,1.628-6.15,4.884-3.237,9.768-6.15,10.419-2.914,2.93-2.914,2.93l-3.561,2.93-2.913,3.256s-5.179,2.6-7.121,6.512-.647,6.838-1.942,9.768-14.243,21.164-15.861,23.443-5.179,3.256-1.295,26.7c0,1.954,7.769,28.653,7.769,32.235s10.035,43.305,8.092,50.794-5.827,17.908-5.827,17.908-5.179,7.163-8.74,8.14-29.457,17.257-31.723,17.583-5.827,16.931-11.977,24.42a140.538,140.538,0,0,1-12.624,13.35l-14.567,10.419s-13.919,3.907-15.214,4.884-4.856,4.884-7.121,5.535-13.272,5.861-15.861,7.163-7.121,7.815-7.121,7.815-13.272,16.28-16.833,17.908a15.221,15.221,0,0,1-1.619,1.954l-1.942-1.954-6.8,3.256-25.9-78.145-12.3-38.1H1124.2l-1.619-6.186-23.63-41.677,69.6-69.679,86.105-91.82,81.249-86.936,26.22-33.863,47.261-63.492,45.966-63.492Z" transform="matrix(1, 0.017, -0.017, 1, -1083.01, -291.138)" fill="#704444"/>
      <path id="Path_5" data-name="Path 5" d="M1492.464,272l113.773,88.174L1586.2,394.332s-.958,2.865-6.71,4.782-22.7,11.193-26.21,15.667c-2.984,1.9-17.243,2.876-22.036,4.793s-15.336,15.017-17.893,16.3-12.141,8.627-18.212,15.656-10.224,6.39-10.224,6.39-9.52,4.846-13.1,14.059c-.319-.32-11.5,13.419-11.5,13.419s-2.237,3.2-4.793,6.71-13.739,12.78-13.739,12.78h-3.2v3.834L1427.725,519.9a22.475,22.475,0,0,0-17.893,12.461,11.72,11.72,0,0,0-1.917,5.432s-25.241,27.159-32.91,29.076c-.639.958-8.627,8.627-12.461,9.9s-2.876,4.154-3.834,5.432a28.082,28.082,0,0,1-3.195,3.2s-4.793,1.6-6.071,4.793-3.2,9.585-6.071,10.224-2.876,2.876-2.876,2.876l-3.515,2.876-2.875,3.2s-5.112,2.556-7.029,6.39-.639,6.71-1.917,9.585-14.058,20.768-15.656,23-5.112,3.2-1.278,26.2c0,1.917,7.668,28.117,7.668,31.632s9.9,42.5,7.988,49.844-5.751,17.573-5.751,17.573-5.112,7.029-8.627,7.988-29.076,16.934-31.312,17.254-5.751,16.615-11.822,23.963a138.28,138.28,0,0,1-12.461,13.1l-14.378,10.224s-13.739,3.834-15.017,4.793-4.793,4.793-7.029,5.432-13.1,5.751-15.656,7.029-7.029,7.668-7.029,7.668-13.1,15.976-16.615,17.573a14.943,14.943,0,0,1-1.6,1.917l-1.917-1.917-6.71,3.2L1142.4,815.128l-12.141-37.383h-6.39l-1.6-6.071-23.324-40.9,68.695-68.375,84.99-90.1,80.2-85.31,25.88-33.229,46.649-62.3,45.371-62.3Z" transform="translate(-1098.427 -262.572)" fill="#fff"/>
      <path id="Path_6" data-name="Path 6" d="M1591.25,350.25s-48.125-39.875-73.5-57.25c0,.5-56.5,79-56.5,79h1s4.875-3.562,5.375-5.312,3-1.625,3-1.625,5.125-4.687,5.875-6.312c-1-.75-1.667-1.1-1.667-2.417s1.667-2.833,1.667-2.833l4.25-3.25s9.25-13.083,12.083-17.25,23.542-32.812,23.542-32.812a18.875,18.875,0,0,1,1.625-1.625c.25-1.937,1.438-1.437,1.438-1.437s1.188,1,0,1.438.375,1,.313.938C1533.375,307.625,1582.125,343,1591.25,350.25Z" transform="translate(-1124.976 -284.493)" fill="#a8a8a8"/>
      <path id="Path_7" data-name="Path 7" d="M1510.375,311.5c1.938,4.375,8.875,11.75,19.125,15.875a2.661,2.661,0,0,1,2.125,2.75s-.375,3.813,0,4.875a3.959,3.959,0,0,0,3,2.875,13.323,13.323,0,0,0,3.375.625s.625,2.375,1.875,2.5,4.625,0,4.625,0l4.25,1.125h2.625s3.375.375,4.25-1.125-.75-3.125-.75-3.125-1.25-1.875,0-2.875.1-2.719,1.292-3.625,1.958-1,3.458,0,2.813,2.5,4.75,3.625,3,.875,3,.875a3.438,3.438,0,0,1,0,2.625c-.625,1.125-1,1.875,0,3a4.847,4.847,0,0,1,.75,3.25v5.375a1.633,1.633,0,0,1-1.75,1.125h-4l-2.125-.75v13.25s5-4.375,8.75-5.375,8.625,0,8.625,0,2.813-2.062,6.125-4.125,3.25-1.75,7.125-4.125c-17.375-13-72-50.125-72-50.125S1510.313,311.438,1510.375,311.5Z" transform="translate(-1124.976 -284.493)" fill="#a8a8a8"/>
      <path id="Path_8" data-name="Path 8" d="M1556.375,332c1-.906,1.375-.75,2.75,0s2.906,2.5,4.875,3.625,3,.875,3,.875a2.2,2.2,0,0,1,0,1.5c-.281.906-1.125,1-1.125,2.125s1.625,2.5,1.625,2.5V350a3.53,3.53,0,0,1-2.083.833,6.2,6.2,0,0,1-3-.417,5.871,5.871,0,0,1-2.042-1.042h-2.75a27.482,27.482,0,0,0,0-3.25,4.546,4.546,0,0,0-1.25-2.208,11.961,11.961,0,0,0-1.25-1.167s1.75-1.375,1.75-2.625-1.75-3.125-1.75-3.125a1.5,1.5,0,0,1,0-1.375C1555.5,334.875,1556.417,334.833,1556.375,332Z" transform="translate(-1124.976 -284.493)" fill="#a8a8a8"/>
      <path id="Path_9" data-name="Path 9" d="M1576.917,359.333a42.441,42.441,0,0,1-3.917,8.333c-1.507,2.564-3.432,4.444-4.5,6.771-.5.25-4-3.021-4.667-3.271s-1.667-.4-1.667-1,.917-1.25.917-1.25.542-3.542-1.25-3.583c-.583-.4-.417-1.333-.417-1.333S1568.25,356.667,1576.917,359.333Z" transform="translate(-1124.976 -284.493)" fill="#a8a8a8"/>
      <path id="Path_10" data-name="Path 10" d="M1480,353.333a82.623,82.623,0,0,0,6.667-7.667c1.667-2.521,22.958-33.1,22.958-33.1a50.255,50.255,0,0,0,5,6.375c.333.167,4.938,4.438,7.875,6.4s7.625,3.625,7.625,3.792c.5,2-.187,4.563.563,6.875s6.021,2.938,6.479,4,.5,1.344,3.083,2.063,3.375-.5,7.25.813a15.213,15.213,0,0,0,6.688,0,5.649,5.649,0,0,1,2.313,3.063,14.163,14.163,0,0,1,0,4.4h2.563l.313,15.854s1.844-.7,2.458,0,.354,2.563.354,2.563-1.724,1.688-1.812,2.917,2.125,0,2.125,0a40.024,40.024,0,0,1,5.313,3.958c.167,0-4.979,11.875-4.979,11.875s-2.167,4.333-3.167,4a11.865,11.865,0,0,1-5.5-4c-1.167-2.5-4.354-7.875-5.417-8.75a3.038,3.038,0,0,0-3.375-.583c-1.437.49-1.13,1.641-2.125,1.958a2.43,2.43,0,0,1-2.562-.687c-.687-.687-.6-1.271-2.437-1.271a2.891,2.891,0,0,0-2.5,1.958s-1.354,1.771-2.687,1.438-4.125-4.312-7.062-5.062c-1.375-1.187.563-3.312.688-4.875s1.063-5.75-6.021-4.792c-.667.333-5.354.854-7.1,0-.75-.4-.812-.4-1.062-1.458a8.38,8.38,0,0,1-3.937.938,4.558,4.558,0,0,1-3.687-.937c-1.375-1.375-3.5,0-3.5,0l-2.062,2a2.126,2.126,0,0,1-2.875,0C1495.1,366.042,1480,353.333,1480,353.333Z" transform="translate(-1124.976 -284.493)" fill="#a8a8a8"/>
      <path id="Path_11" data-name="Path 11" d="M1467,371v-1.625a106.723,106.723,0,0,0,9.063-7.25A6.34,6.34,0,0,0,1478,358.75c0-.875-1.75-1.5-1.937-2.187a2.137,2.137,0,0,1,1.063-2.187,2.561,2.561,0,0,1,2.438,0c.438.375,10.25,9.063,10.25,9.063s5.625,4.875,6.313,5.438a2.8,2.8,0,0,0,3.313,0c1.063-.875,2.938-2.812,3.75-2.75s1.625,1.188,2.313,1.375,4.75.563,6.5-.5c.313.125.688,1.563,4.063,1.5s6.625-1,7.438-.75,1.938.75,2.188,1.813a5.726,5.726,0,0,1-.437,3.313,8.216,8.216,0,0,0-.812,3c0,1.031.375,1.563,1.625,1.875s4.813,4.125,5.438,4.688,3.25.5,3.938-.312,1-2.062,1.688-2.25,1.063-.562,2-.312.813,1.125,1.938,1.5,1.625.813,2.563,0,.453-.8,1.688-1.5a2.175,2.175,0,0,1,2.25,0,21.825,21.825,0,0,1,1.938,2.125c.953,1.2.7,1.125,2,3s.953,3.141,2.75,4.813a22.877,22.877,0,0,0,4.625,3.063s-8,4.875-9.062,5.875a21.812,21.812,0,0,1-5.625,2.875c-.687.125-5,1.438-5.75,1.563s-3,.75-4.125.875a28.819,28.819,0,0,0-4.812,1.938l-12.812,8.375s-4.187-.187-4.25,3a11.368,11.368,0,0,1-2.937-1.562s-2.625-2.947-4-4.259-11.25-7.8-11.25-7.8,3.683-2.624,4.688-5.187c1-1.016,2.063-.536,2.75-2.411s.5-4.339,0-5.089-2.375-1.437-3.062-1.875-9.125-4.984-16.562-9.312-9.984-5.859-13.75-8A2.343,2.343,0,0,0,1467,371Z" transform="translate(-1124.976 -284.493)" fill="#a8a8a8"/>
      <path id="Path_12" data-name="Path 12" d="M1465.409,370.968l33.864,19.706s1.818.478,1.244,3.061a4.034,4.034,0,0,1-3.252,2.965l-11-7.461-10.905-6.792-12.34-9.183Z" transform="translate(-1124.976 -284.493)" fill="#a8a8a8"/>
      <path id="Path_13" data-name="Path 13" d="M1493.246,403.875c.67-.383,9.949,6.888,9.949,6.888s5.644,4.687,6.5,6.6c.287.383-1.6,1-2.678,1.531a4.25,4.25,0,0,1-2.678,0l.765-2.1s.191-1.531-1.913-2.3-3.157.191-5.644-.765c-1.722-2.583-2.7-2.2-4.879-3.826s-1.913-1.913-3.826-2.678a9.857,9.857,0,0,1-2.391,0s-.1-.765,0-.861C1489.707,403.588,1492.576,404.257,1493.246,403.875Z" transform="translate(-1124.976 -284.493)" fill="#a8a8a8"/>
      <path id="Path_14" data-name="Path 14" d="M1460.243,373.455a9.319,9.319,0,0,0,1.435.957s1.619-3.492-.147.215-7.219,8.012-7.219,8.012Z" transform="translate(-1124.976 -284.493)" fill="#a8a8a8"/>
      <path id="Path_15" data-name="Path 15" d="M1453.93,383.5a25.43,25.43,0,0,0,3.348-2.009c1.578-1.148,2.583-2.487,2.965-2.583s3.348,2.583,3.348,2.583L1459,387.326s0,4.5,1.626,6.314,1.244,3.157,1.244,3.157-.782,1.2-1.786,1.2-1.37-1.11-2.231-1.2c-3.444-1.052-4.544.5-7.557,0a8.578,8.578,0,0,1-4.5-2.009Z" transform="translate(-1124.975 -284.493)" fill="#a8a8a8"/>
      <path id="Path_16" data-name="Path 16" d="M1460.722,378.429c.237.194,3.348,2.678,3.348,2.678l2.965-2.678-4.592-2.965S1461.774,376.612,1460.722,378.429Z" transform="translate(-1124.975 -284.493)" fill="#a8a8a8"/>
      <path id="Path_17" data-name="Path 17" d="M1467.7,379s-6.314,5.261-7.462,8.322,2.678,8.8,2.678,8.8l15.114,12.149,8.8-7.844-6.409-4.783,4.687-4.687Z" transform="translate(-1124.976 -284.493)" fill="#a8a8a8"/>
      <path id="Path_18" data-name="Path 18" d="M1492.863,396.6c2.391,1.483,2.583.957,2.583.957s-.191,3.635-2.583,4.018a8.455,8.455,0,0,1-4.974-1.244l-5.931-4.592,3.922-4.113S1490.472,395.122,1492.863,396.6Z" transform="translate(-1124.976 -284.493)" fill="#a8a8a8"/>
      <path id="Path_19" data-name="Path 19" d="M1487.506,401.483a24.8,24.8,0,0,0,3.731.957,22.72,22.72,0,0,0-5.261,2.391c-1.626,1.244-2.1,1.244-2.2,2.1s.383.741,1.626,1.244,2.678.478,3.348.765,4.687,3.539,5.644,4.018-2.1,1.435-3.157,2.774a47.787,47.787,0,0,0-3.061,5.453V425.3a8.269,8.269,0,0,0-.67,2.2c-.191,1.244,0,2.009.67,2.391s2.3,1.244,2.3,1.244v1.339l-2.965-.478s-1.531-1.339-2.1-1.722-3.348-1.435-5.07-1.052a25.7,25.7,0,0,0-5.548,1.913c-.383.383-11-8.322-11-8.322s6.8-6.559,13.342-13.065c.144-.142,1.224-.157,1.563-.5C1479.261,408.485,1486.646,401.063,1487.506,401.483Z" transform="translate(-1124.976 -284.493)" fill="#a8a8a8"/>
      <path id="Path_20" data-name="Path 20" d="M1495.542,413.823a3.025,3.025,0,0,0,2.009,1.148c1.244.1,3.731.67,4.113.574s1.244.861,1.339,2.009-.335,1.77.574,2.487,3.061.383,3.061.383l1.818-.383s-4.687,2.965-5.453,3.539-6.027,5.166-6.027,5.166l-4.4,3.539a29.084,29.084,0,0,0-4.018-3.061c-.574-1.435-.478-1.435,0-2.1a8.286,8.286,0,0,0,.765-2.487,23.86,23.86,0,0,1,0-2.678,12.079,12.079,0,0,1,2.009-4.018c.861-1.052,2.487-2.965,2.487-2.965Z" transform="translate(-1124.976 -284.493)" fill="#a8a8a8"/>
      <path id="Path_21" data-name="Path 21" d="M1445.25,395.583s5.417,3,8,2.083,2.521-.312,4.333,0c1.583,1.917,2.917,1.25,2.917,1.25a5.9,5.9,0,0,0,2.083-1.833l14.333,11.333-6.106,6.175-1.227,1.241L1467.917,417l-4.75,5.083L1451.5,413.5s-4.333-3.667-4.667-5.083-.667-3.833-.667-3.833a53.592,53.592,0,0,0-4.5-3.833C1440.75,400.25,1445.25,395.583,1445.25,395.583Z" transform="translate(-1124.975 -284.493)" fill="#a8a8a8"/>
      <path id="Path_22" data-name="Path 22" d="M1440.917,401.466s3.25,2.7,3.583,3.451,0,2.5.333,3.333a9.934,9.934,0,0,0,2.25,3.083c1,.917,13.333,10.417,13.333,10.417l-1.542,2.5a7.031,7.031,0,0,1-3,1c-1.375,0-2.792-1-3.542-1s-5.583,4.583-5.583,4.583l-6.333,5.083s-8.4-5.146-12.167-7.917-2.917-3.167-2.917-3.167Z" transform="translate(-1124.975 -284.493)" fill="#a8a8a8"/>
      <path id="Path_23" data-name="Path 23" d="M1461.333,422.667,1473.5,432a1.541,1.541,0,0,1,.833,1.25c0,.833-.833,5-.833,5s-.583,1.75-2,1.833-7.833-1.833-7.833-1.833-8.333-3.833-9.167-3.667a4.7,4.7,0,0,0-2.417,1.333,14.993,14.993,0,0,1-3.5,2.333,3.673,3.673,0,0,1-2.833,0l-4.833-3.25s10.417-8.667,11.167-8.833,1.25.583,1.75.583,1.917.667,2.583.333,3.25-1.833,3.75-2.917A3.592,3.592,0,0,1,1461.333,422.667Z" transform="translate(-1124.976 -284.493)" fill="#a8a8a8"/>
      <path id="Path_24" data-name="Path 24" d="M1434.375,431.75,1446.25,440h1.25s1.458.229.583,1.625a10.961,10.961,0,0,1-3.5,3.208,21.259,21.259,0,0,1-6.25,0,12.209,12.209,0,0,1-4.917-2.25c-.833-.5-3.917-2.333-4.333-2.583a1.15,1.15,0,0,1-.417-1.75c.583-.917,2.583-1.083,3.25-1.917A45.53,45.53,0,0,0,1434.375,431.75Z" transform="translate(-1124.976 -284.494)" fill="#a8a8a8"/>
      <path id="Path_25" data-name="Path 25" d="M1424,423.5a43.756,43.756,0,0,0,9.25,7.5,7.561,7.561,0,0,1-1.625,3.75c-1.146,1.333-1.99,1.344-2.792,2.375s-1.708.677-1.708,1.875,1.708,2.25,1.708,2.25l2.792,1.75s3.125,1.25,3.125,1.833-.771,1.188-2.25,2.042-2.667,1.2-5.375,2.625-3.25,1.375-4.75,2.625-.792,1.792-1.875,2.458-4.917.667-4.917.667a6.212,6.212,0,0,0-1.208-4.5,23.236,23.236,0,0,0-5.375-4.583l-.875-2.417Z" transform="translate(-1124.975 -284.494)" fill="#a8a8a8"/>
      <path id="Path_26" data-name="Path 26" d="M1481.125,443.875A5.389,5.389,0,0,0,1484,441.75c1.3-1.781.875-2.229,2.75-4.375s3.75-3.958,4.75-4.208a.778.778,0,0,0-.75-.75,2.038,2.038,0,0,1-2.167.75c-1.583-.25-1.875-.854-3.583-1.5s-2.25-1.083-3.25-1.083a10.8,10.8,0,0,0-4,.542c-1.583.583-2.167,1.25-2.5,3.25s-.167,4.292.833,5.458,1.833,2.417,2.583,2.667A17.145,17.145,0,0,1,1481.125,443.875Z" transform="translate(-1124.976 -284.494)" fill="#a8a8a8"/>
      <path id="Path_27" data-name="Path 27" d="M1480.125,444.907s-4.625-2.282-5.5-5.657c-1.125,1.25-.75,2.375-3.25,2.125s-3.625-.5-15.375-4.625a2.187,2.187,0,0,0-3.125,0c-1.125,1-4.75,2.625-4.25,2.5s1.875,1.625,1.875,1.625.5-.5-.875,1.125a49.532,49.532,0,0,1-5,4.5,13.365,13.365,0,0,0-3.625-.625c-1.75,0-2.875-.625-4.625,0s-10.375,5.5-10.375,5.5-2.625,1.125-3.25,2.25-1,2.125-2.375,2.25-2.5-.25-2.625.75,1.625,2.25,1.625,3.625.625,2.125-.875,4.25-2.25,4.125-1.75,4.75,2.25.875,1.75,2.375-2,2-1.75,3.5.125,3,2.625,3.25,5.75-.625,6.625,0a6.9,6.9,0,0,1,2.375,3.25c.25,1.125,1.625,1.625,4,1.625s2.313-.719,5.375-1.125,6.875-.5,6.875-.5,4.094-4.312,8.875-10,10.25-12.75,10.25-12.75,2.25-4.875,3.25-5.25,4.75-1.375,5.25-2.25l3.625-1.5Z" transform="translate(-1124.976 -284.494)" fill="#a8a8a8"/>
      <path id="Path_28" data-name="Path 28" d="M1407.375,445.25v1.5s3.563,1.688,5.125,3.75,1.5,3.125,1.5,3.125-.375,2.375,1.125,3.25c0-.25.75-.5,1.5.875s2.5,3.25,1.25,4.875-2.625,5.875-2.25,7,1.688-.125,1.5,1.875-1.937,2.406-1.5,4.5,1.625,3.5,3.5,3.5,5.25-.5,6.75.625.875,2.25,2.25,3.25,2.5,1.625,4.25,1.25,1.75-.781,4.625-1.25,6.875-.625,6.875-.625l-20.562,22.188s-8.281-7.937-13.562-12.312-1.844-.594-7.75-5.25S1386.125,474,1386.125,474Z" transform="translate(-1124.975 -284.494)" fill="#a8a8a8"/>
      <path id="Path_29" data-name="Path 29" d="M1593.5,352.04l34,26.793a27.044,27.044,0,0,1-5,6.667c-3.708,3.833-8.167,8-9.833,8.667a33.693,33.693,0,0,0-9.5,7c-3.375,3.583-3.5,4.458-4,7.333s1.5,2.292,2,4.167,1,3.333,1,3.333-.833-1.333-3,0-2.167,3-4.333,3-4-2.667-4.333-3-2.5,0-2.5,0a6.734,6.734,0,0,0,1.667-3.333c-.667-1.167-5.5-3.5-6.167-5s-.25-1.708-1.667-3.333a18.532,18.532,0,0,0-4-3.167c-1.167-.833-2-2.667-5.833-3s-3.167-.958-5.5-2.167a28.883,28.883,0,0,1-4.333-2.833,53.117,53.117,0,0,0,5.333-9.667,114.3,114.3,0,0,1,6.167-12.667c.667-1.167,4.167-8,4.167-8s2-4,4-4.833S1593.5,352.04,1593.5,352.04Z" transform="translate(-1124.976 -284.493)" fill="#a8a8a8"/>
      <path id="Path_30" data-name="Path 30" d="M1561.395,395l8.272,4.667H1573l3.833,2.333,2.167,1.833,1.667,1.5,1.5,3.333s2,1.333,3.167,2.167a13.862,13.862,0,0,1,2.333,2.333,3.559,3.559,0,0,0-1.167,2.167c0,1.125-.042,1.792,1.167,2.333a3.472,3.472,0,0,0,2.5,0l2,1.833s1.167,1.667,2.667,1a57.627,57.627,0,0,0,5.667-3.667l5.333.833h4.333s-1.5,2.333-2.667,2.833-2.167.167-4.167,1a80.231,80.231,0,0,0-8.5,4.167c-1.833,1.167-6.5,3.167-8.333,4.5s-3.958,2.25-5.167,3.333-2.833,3.333-4.5,3.833a67.156,67.156,0,0,1-11.5,2.167,19.25,19.25,0,0,0-8.5,2.833l-5-3.667a31.707,31.707,0,0,0,6.167,0,32.153,32.153,0,0,0,6.333-1.333s1.125-.792,0-2.833-1.375-2.333-4-4.333-2.833-1.5-6.5-3.667-5.708-4.042-8.667-6-3.167-1.833-3.167-1.833,11.151-16.25,16-22.167A19.016,19.016,0,0,0,1561.395,395Z" transform="translate(-1124.976 -284.493)" fill="#a8a8a8"/>
      <path id="Path_31" data-name="Path 31" d="M1550.625,437.833a31.169,31.169,0,0,0,7.209,0,13.19,13.19,0,0,0,5.167-2,11.708,11.708,0,0,0-3.833-4.333c-2.333-1.333-7.375-4.167-7.833-4.667s-9.833-7.333-9.833-7.333l-5.667,8.167,6.833,4.667s.792,1,2.167,0,1.708-3,3.333-4,1.167-1.333,3.167,0,3.5,2.167,1.333,5.167-3,3.167-3,3.167Z" transform="translate(-1124.976 -284.493)" fill="#a8a8a8"/>
      <path id="Path_32" data-name="Path 32" d="M1603.167,416l7.667,1.333s6.333-8.333,8.833-13,8.833-15,8.833-15l3.833-6.667L1628.5,380s-4.5,5.833-5.833,7.333a56.9,56.9,0,0,1-7,6.5c-2.958,2.292-2.125.75-4.833,2.667a31.439,31.439,0,0,0-7,6c-2.583,3-3.833,5.333-3.333,6a6.246,6.246,0,0,1,1.667,2.667A27.146,27.146,0,0,1,1603.167,416Z" transform="translate(-1124.976 -284.493)" fill="#a8a8a8"/>
      <path id="Path_33" data-name="Path 33" d="M1533.5,426.167l2.333-3L1521.667,414l-2.5,1.833Z" transform="translate(-1124.976 -284.493)" fill="#a8a8a8"/>
      <path id="Path_34" data-name="Path 34" d="M1536.667,422.167l16.5-23s-8.333,4.667-11,5.333-9,2-9,2L1523,412.833Z" transform="translate(-1124.976 -284.493)" fill="#a8a8a8"/>
      <path id="Path_35" data-name="Path 35" d="M1496.5,432.477s12.833-2.81,15-4.977c.667-.5,4-1,4-1l16.5,1s-13-11-14.167-10.5-1.333,2.667-2.333,2.833-2.833-.5-4,0S1496.5,432.477,1496.5,432.477Z" transform="translate(-1124.976 -284.493)" fill="#a8a8a8"/>
      <path id="Path_36" data-name="Path 36" d="M1507.167,455.333s5.333-4.667,6.5-6.5,2.167-5.667,3.333-6.667c.594-.509,2.346-3.108,5.333-6,1.07-1.036,3.7-2.021,5.167-3.167,1.313-1.029,1.4-2.133,2-2.5a7.24,7.24,0,0,0,2.667-2.333H1519.5s-4.333-.833-5.833,0-2-.167-3.833,1.5-9,3.333-9,3.333l-6.5,1s-5.333,3.667-5.5,5,4.167,5,4.167,5,5.833,4.333,7.833,4.833S1507.167,455.333,1507.167,455.333Z" transform="translate(-1124.976 -284.494)" fill="#a8a8a8"/>
      <path id="Path_37" data-name="Path 37" d="M1506,456.833s-4-5.167-5.667-6.167a84.743,84.743,0,0,1-8.833-6.333l-4.167-4.167a19.119,19.119,0,0,1-4,5.5c-2.667,2.5-5,5-5,5s.833,3.833-.833,6.167a14.892,14.892,0,0,0-2.5,6c0,.667.708,1.958,2.5,3.333a15.142,15.142,0,0,0,4.667,2.167c.5.167,4.667.667,5.167,1.667s0,5.167,0,5.167l3-2.667h2.833l3-4.167Z" transform="translate(-1124.976 -284.494)" fill="#a8a8a8"/>
      <path id="Path_38" data-name="Path 38" d="M1509.729,458.5a3.88,3.88,0,0,0,2.1,2c1.5.833,10.5,11,10.5,11l6-6,14.333-11.167,7.833-7.833,4.167-3.167-6.5-4s-1.667-2.167-.833-3.333,4.333-2.833,4.5-4.5.125-2.75-1.333-2.167-4.5,4.5-4.5,4.5-1.5,2-3.333.833-8.5-5.333-8.5-5.333-1.958,2-4.833,4.5-5.667,3.833-6.667,5.5-3.167,2.833-4.5,5.667-2.333,5.167-3.833,6.667-4.6,4.667-4.6,4.667A2.421,2.421,0,0,0,1509.729,458.5Z" transform="translate(-1124.976 -284.494)" fill="#a8a8a8"/>
      <path id="Path_39" data-name="Path 39" d="M1508.333,458s-.667,2.333,1,3a25.073,25.073,0,0,1,2.833,1.333l9.5,10.833a70.3,70.3,0,0,1-8,6c-3.708,2.25-6.667,2.333-6.833,3s-2.167,1.375-4,3.167a29.968,29.968,0,0,0-3.333,4L1497.667,494l-12.479,15s-8.687-9-9.854-8.5-.333,4-2,3.167-11.333-6.5-11.333-6.5,8-.167,8.167,0a8.386,8.386,0,0,0,4.167-3.167c.833-1.667,5.167-4.667,5.167-4.667s1.875-2.667,3-4,3-1.333,2.667-2.333-.5-1.792,1.333-3.833,4.667-4.167,6-4.333,2.5-.5,2.667-1.667S1508.333,458,1508.333,458Z" transform="translate(-1124.976 -284.494)" fill="#a8a8a8"/>
      <path id="Path_40" data-name="Path 40" d="M1448.25,501.313l-.312,6.688L1460,515.333a2.871,2.871,0,0,1,.5,3.854c-1.5,2.167-23,26.563-23,26.563a6.027,6.027,0,0,1-4.312,2.563c-2.937.313-17.187,0-17.187,0a18.689,18.689,0,0,1-.625,4.563,3.436,3.436,0,0,1-2.187,1.688s-1.062,2.625-4.812,5.688c-.255,2.276.875,2.392,3.792,3.417s8.5.833,8.5.833a2.713,2.713,0,0,1,2.333.833,7.221,7.221,0,0,1,.833,3.333l9.667-9.333a13.6,13.6,0,0,1,4-6.333c1.917-3,1.667-4.5,3.667-5.667a62.239,62.239,0,0,1,6.833-4,9.746,9.746,0,0,1,5.5-.9c1.333,0,9.5-10.1,9.5-10.1a13.955,13.955,0,0,1,1.813-3.521,11.111,11.111,0,0,1,2.854-1.646L1478.5,516s6.167-5.167,6-6.167-7.5-7.667-8.333-7.333-.492,3.986-1.333,3.5S1460,497.167,1460,497.167Z" transform="translate(-1124.976 -284.494)" fill="#a8a8a8"/>
      <path id="Path_41" data-name="Path 41" d="M1448.333,480.833s.333-1.833,4.505-4.959c3.286-3.668,8.029-9.1,10.662-12.708a3.419,3.419,0,0,1,2-.833,46.718,46.718,0,0,1,2-5.5A4.3,4.3,0,0,1,1470,455c1.333-.333,5.5-2.167,5.5-2.167l1.167-1s1.167,3.667,0,5-3.167,4.833-2.833,6.333a4.951,4.951,0,0,0,2.833,3.667c1.5.5,2.375,1.792,4.667,2.833s3.792-.25,4.5,1.333a23.033,23.033,0,0,1,1,5.333,18.117,18.117,0,0,0-3.167,3.5,30.668,30.668,0,0,1-2.333,3.333c-2.447,2.912-3.542,5.375-7.5,7.167s-4.958-.25-8.333,0a18.086,18.086,0,0,0-5.167,1Z" transform="translate(-1124.976 -284.494)" fill="#a8a8a8"/>
      <path id="Path_42" data-name="Path 42" d="M1425.5,505.833c1.542-5.125,21-20.333,22-24.167.167,0,3.167,2.333,3.167,2.333l9.333,8.333a28.1,28.1,0,0,1,6.167-.833,42.1,42.1,0,0,1,7,.833l-3,2.5H1460s-11.5,4.333-18.667,7.333S1431,506,1425.5,505.833Z" transform="translate(-1124.976 -284.494)" fill="#a8a8a8"/>
      <path id="Path_43" data-name="Path 43" d="M1385,475.167s18.733,15.967,21.333,17.167c-2,1.8-8.933,5.867-8.933,5.867l-3.233.8-2.567,3-2.8,1.6-7.6,5.4s-5.317.458-10.325,1.125-7.531,1.869-11.5,2.438a44.449,44.449,0,0,1-5.062.563l8.854-8.125Z" transform="translate(-1124.975 -284.494)" fill="#a8a8a8"/>
      <path id="Path_44" data-name="Path 44" d="M1407.313,493l1.875,1,13.375,12.063L1407,521l-2.562,2.5a6.927,6.927,0,0,0-4.437-2.937c-3.347-.866-8.187-1.625-8.187-1.625s-6.917.583-8.5-.6C1382.021,516.9,1382,509.5,1382,509.5l4.313-2.875,4.375-2.937,4.25-3.812,3.125-.625Z" transform="translate(-1124.975 -284.494)" fill="#a8a8a8"/>
      <path id="Path_45" data-name="Path 45" d="M1352.4,514.4l8.4-1.2s7.2-1.8,9.8-2.2,9.8-1.8,10.6,0,.238,6.75,1.238,7.75,6.125,1.063,10.963,1.25,3.6.25,6.162,1.125A10.621,10.621,0,0,1,1403.8,524s-3,2.8-3.6,3.4-4.4,3.8-4.4,3.8l-2.113.675L1371.6,550.4l-2.8,2.2-8,6.6s-3.375-.912-4.175-2.513-1.463-4.088-3.062-4.088-2.725,1.463-4.125,1.463-6.625-3.25-7.437-3.662-3.15-3.35-4.75-4.15-4.05-2.45-5.45-2.45-5.55-.675-5.55-.675Z" transform="translate(-1124.975 -284.494)" fill="#a8a8a8"/>
      <path id="Path_46" data-name="Path 46" d="M1423.8,508.08a87.7,87.7,0,0,0,13-1.88,44.469,44.469,0,0,0,10-3.8V509l12.8,8.6-23.8,28.2a30.752,30.752,0,0,1-4.8,1.4c-1.6.2-15.6,0-15.6,0s-2-8.2-2-9-1.971-6.2-4.4-7.771-3.143-5.143-3.143-5.143Z" transform="translate(-1124.976 -284.494)" fill="#a8a8a8"/>
      <path id="Path_47" data-name="Path 47" d="M1397.8,532.917,1394.4,534s-18.114,14.921-26.114,21.571-5.886,5.029-5.886,5.029l11.457,8.971s1.393-.521,4.143.429,1.922.28,3.25,1.438,1.229,2.289.893,3.875a8.086,8.086,0,0,1-1.343,2.888,68.617,68.617,0,0,1,6.137,3.362,46.581,46.581,0,0,1,5.875,4.563s2.78-.205,5.438-4.062c-2.086-.714-3.643-.541-2.393-4.491s4.83-8,4.83-8,4.884-8.343,6.884-10.143,4.571-2.652,4-5.571-3.625-1.446-4.946-3.732-.339-5.411-.339-5.411-2.879-4.336-5-7.286S1397.8,532.917,1397.8,532.917Z" transform="translate(-1124.975 -284.494)" fill="#a8a8a8"/>
      <path id="Path_48" data-name="Path 48" d="M1406.4,563.2s-7.55,11.25-9.2,15.6c-1.057,2.629,2.6,1.8,2.6,1.8s.429,1.007-1.371,3.257-2.143,3.286-6,4.429a17.5,17.5,0,0,1-7.366,2.464l4.366,6.393s3.921-2.643,7.771-5.543,6-5,8-6.6,4.207-2.4,8.657-6.2a117.285,117.285,0,0,0,9.143-9l-1-3.2-6.714-.886a18.672,18.672,0,0,1-5.486-1.114,4.383,4.383,0,0,1-2.4-2.6Z" transform="translate(-1124.975 -284.494)" fill="#a8a8a8"/>
      <path id="Path_49" data-name="Path 49" d="M1399.4,532.917V531l5.457-4.714s3.457,6.348,4.857,6.631,2.714,12.94,5.086,18.283c.2.657-.6,3-1.6,1.8s-3-3.2-4.4-3.2.979-2.293-1.371-6.514S1399.4,532.917,1399.4,532.917Z" transform="translate(-1124.975 -284.494)" fill="#a8a8a8"/>
      <path id="Path_50" data-name="Path 50" d="M1328.286,598s7.977,2.825,11.777,4.625,12.463,5.338,15.063,6.938,4.875,2.813,4.875,2.813,10.6,7.425,12.6,4.625c.388-.543.075-2.526,1.114-5,1.143-.857,3.286-1.557,5.857-3.857a35.084,35.084,0,0,0,4-4.143,13.086,13.086,0,0,1,2.029-4.4,6.63,6.63,0,0,1,3.338-2.037l-4.687-6.687S1375.464,593,1368.286,592s-15.036-5-15.036-5-10.65-5.257-10.25-5.857S1335.543,591,1334.143,592A75.554,75.554,0,0,0,1328.286,598Z" transform="translate(-1124.975 -284.494)" fill="#a8a8a8"/>
      <path id="Path_51" data-name="Path 51" d="M1343.8,580.2l17.771-18.771s8.829,7.857,10.429,8.857,2.8-.086,5.2.714,4.8,2.4,4,3-2.336,2.807-1.486,4.857,4.057,2.571,5.857,3.571a56.911,56.911,0,0,1,6.029,4.771s-2.6,2.6-5.4,2.6-9.1,2.443-17.2,1.343-9.7-2.836-16-5.571A36,36,0,0,1,1343.8,580.2Z" transform="translate(-1124.975 -284.494)" fill="#a8a8a8"/>
      <path id="Path_52" data-name="Path 52" d="M1327.688,598.375s4.554,1.885,11.625,4.688S1356.286,611,1356.286,611l3.964,2.688s-10.838,8.2-13.437,8-5.25-2.875-6.5-3.687-2.838-2.587-4.437-3.187-3.412-1.413-5.812-.812-5.075,2.413-6.875,2.813-4.187,1.887-7.854.787-2.933-3.2-2.933-3.2,5-6.8,7-8.2S1327.688,598.375,1327.688,598.375Z" transform="translate(-1124.975 -284.494)" fill="#a8a8a8"/>
      <path id="Path_53" data-name="Path 53" d="M1323.429,659.429c6.346,2.7,14.774,1.837,15.385,2.448S1349.6,645.39,1349.6,645.39l.814-4.885s.814-2.8,4.885-6.92a125.225,125.225,0,0,1,11.4-9.566s-.611-2.29,0-3.053,2.442,0,2.442,0l1.289-2.035a68.38,68.38,0,0,1-9.714-4.789c-3,2.429-10.3,6.824-10.3,6.824a7.591,7.591,0,0,1-3.664,1.628,40.253,40.253,0,0,1-7.938-4.881s.268,8.145-1.563,8.348,2.561-.275,5.227,3.046.611,6.233,0,7.454-4.922,2.58-4.165,4.438-1.372,5.125-3,5.125-2.174,5.649-5.437,6.813-7.054.1-8.625-1.848-5.625-9.518-5.625-9.518a39.675,39.675,0,0,0-5.562-6.571,25.864,25.864,0,0,0-6.687-4.187l-4.046,7.251s5.164,1.88,6.385,3.508,6.9,8.3,7.714,9.518A21.892,21.892,0,0,0,1323.429,659.429Z" transform="translate(-1124.975 -284.495)" fill="#a8a8a8"/>
      <path id="Path_54" data-name="Path 54" d="M1303.714,629.922a33.276,33.276,0,0,1,8.786,6.106,33.691,33.691,0,0,1,6.333,9.639s3.335,5.926,5.167,6.333,4,1.425,5.833,0,3.1-4.437,4.229-5.812,2.384-.9,3.188-2.437-.521-2,.75-4.187,3.417-2.152,4.333-4.562.6-5.75-3.583-7.437-3.125-1.562-3.125-1.562,1.1.125,1.625-2,.875-4.875.464-6.125-.834-2.2-3.277-2.812a9.167,9.167,0,0,0-6.152.366c-2.442.814-3.821,2.333-6.976,2.892s-3.3.56-5.7,0-2.676-.611-3.9-2.239S1303.714,629.922,1303.714,629.922Z" transform="translate(-1124.975 -284.495)" fill="#a8a8a8"/>
      <path id="Path_55" data-name="Path 55" d="M1296.143,638.857s7.681-14.232,11.938-21.757,5.088-8.345,5.088-8.345l6.309-5.5,9.379-8.974s-3.884-1-4.494-3.441a13.6,13.6,0,0,1,0-5.292l-4.885-3.053,1.425-4.478-3.153-2.147a31.091,31.091,0,0,1-1.937,3c-.875,1.125-2.434.923-4.062.313s-11.062-8.875-11.062-8.875l-42.973,45.545s8.266,6.406,10.1,7.83c.2,1.018-.234,3.894.58,6.031s2.822,2.906,4.858,2.906,12.161-1.114,13.179-.911S1296.143,638.857,1296.143,638.857Z" transform="translate(-1124.975 -284.494)" fill="#a8a8a8"/>
      <path id="Path_56" data-name="Path 56" d="M1325.286,544.429a39.658,39.658,0,0,1,7.218,1.233,13.574,13.574,0,0,1,5.371,3.4,39.154,39.154,0,0,0,5.063,3.938s4.09,2.625,6.125,2.625,3.748-1.329,4.563-1.125,1.938,3.625,1.938,3.625l3.875,2.563-18.182,19.777-11.827,13.107s-3.329-.19-4.143-2.429,0-6.143,0-6.143l-4.857-2.571,1.492-4.857-4.635-2.714s-1,4-3.429,4-3.111-1.77-6.286-4a67.49,67.49,0,0,1-6.286-5.143Z" transform="translate(-1124.975 -284.494)" fill="#a8a8a8"/>
      <path id="Path_57" data-name="Path 57" d="M1252.11,621.577s20.353,16.486,21.574,16.486,8.548,4.274,8.548,4.274l6.716,5.088,6.676-8.176-9.687-6.687s-10.218,1.141-12.253.938-3.806.223-5.434-1.812-1.25-7.437-1.25-7.437l-9.875-7.75Z" transform="translate(-1124.975 -284.495)" fill="#a8a8a8"/>
      <path id="Path_58" data-name="Path 58" d="M1298.667,639.667s6.583,2.583,8.583,5.8,5.667,8.862,8.083,11.278,5.615,4.927,9.167,5.25c.184,1.206-1.65,5.073-4,10.75s-2.873,6.891-6.667,11.25-4.667,4.5-8.75,5.583-15.833,1-15.833,1-7.7,2.521-10.577,3.323-7.006,1.594-7.006,1.594,2.083-.833,3.583-4.917,1.271-4.729,2.417-9.333,1.433-4.56,2.167-9.083-1.212-3.9,1.1-9.259,4.633-7.577,8.15-12.158,4.3-3.906,5.917-6.167S1298.667,639.667,1298.667,639.667Z" transform="translate(-1124.975 -284.495)" fill="#a8a8a8"/>
      <path id="Path_59" data-name="Path 59" d="M1325.333,662.083s7.834,2.4,13,1.75c0,1.292-5.125,6.511-6.417,9.417s-1.49,9.938-1.167,13.167,3.25,13.3,3.25,13.3l1.333,6.365h-14.75c-8.352,0-20.75-.876-20.75-.876a24.149,24.149,0,0,0-5.583-6.124c-3.333-2.427-2.965-2.529-7.75-3.583a31.027,31.027,0,0,0-10.5,0l13.329-4.177s11.171.344,15-.49,7.694-2.023,12.417-9.333S1325.333,662.083,1325.333,662.083Z" transform="translate(-1124.975 -284.495)" fill="#a8a8a8"/>
      <path id="Path_60" data-name="Path 60" d="M1299.75,706.333l35.833,1,3.083,18h-9.75a15.019,15.019,0,0,0-6.917-2.667,129.82,129.82,0,0,0-13.083,0,3.329,3.329,0,0,0-.417,2c-2.25-.75-8.566-.333-10.333-.333s-7.833-.721-7.833-.721a23.751,23.751,0,0,0,9.417-17.279Z" transform="translate(-1124.975 -284.495)" fill="#a8a8a8"/>
      <path id="Path_61" data-name="Path 61" d="M1331.75,728.417c.646,2.018.067,3.225-1.417,5.333a10.127,10.127,0,0,1-4.517,3.1s3.534,1.528,4.517,3.648.25,3.417-.583,4.833-5,2.5-5,2.5l-.871,11.624V772.37l-11.3,10.333,11.3,5.812s7.75,17.436,12.916,13.885,7.75-10.01,7.75-10.01,4.521-15.5,4.521-20.02-4.521-24.54-4.521-24.54l-5.812-21.957h-9.565A4.025,4.025,0,0,1,1331.75,728.417Z" transform="translate(-1124.975 -284.495)" fill="#a8a8a8"/>
      <path id="Path_62" data-name="Path 62" d="M1290,724.167a51.642,51.642,0,0,0,6.5.833c2.651.234,6.313-.188,9.333,0a10.634,10.634,0,0,1,3.515.873V723.29s9.445-.753,14.208.377,5.277,2.75,6.527,4c1.75,1.5,1,3.75,0,5.167a11.183,11.183,0,0,1-5.333,4.083,13.365,13.365,0,0,1,4.333,3.417c1.382,1.972,1.1,3.072,0,4.583s-5.083,2.5-5.083,2.5l-.444,6.167-6.781-3.493-7.427,10.656-5.489,8.718v3.229l-5.812,1.937h-5.812s-7.033,7.2-6.985,7.2c-3.833,1.583-7.833-1.417-9.5-3.167,2.25-1.25,4.917-4.917,4.917-4.917a7.94,7.94,0,0,0,5.417,0c2.892-1.071,5.083-5.25,5.083-5.25l2.167-3.75,6.917-9.167s-4.167-4.25-5.917-6.333-3.417-1.333-4.333-.75c-1.917,3.833-3.917,3.417-3.917,3.417V741.25l.5-4.917s-.479-1.167-1.25-3c-.388-.907-1.5-2.191-1.167-3.333C1284.934,727.385,1290,724.167,1290,724.167Z" transform="translate(-1124.975 -284.495)" fill="#a8a8a8"/>
      <path id="Path_63" data-name="Path 63" d="M1267.5,745.833c1.776,2.5,8.833-8.333,8.833-8.333l1.75,4.083,7.417-2.667a8.053,8.053,0,0,0,0-3.5c-.4-2.166-3.784-3.225-1.661-6.583s8.494-8,8.494-8,3.793-3.7,4.667-7.167,2.066-6.466.667-9.417-3.917-4.583-6.5-6-4.672-2.12-9.587-2.333-11.913,1.333-11.913,1.333-.6,1.119-4.232,3.114-4.6,3.352-7.1,5.719-2.917,3.75-2.917,3.75,3.958,2.357,5.25,5.667-.625,3.917,0,6.75.934,3.281,2.5,4.583c1.041.866,1.86.562,3.083,1.083a2.083,2.083,0,0,1,1.25,1.25C1268.016,733.753,1265.724,743.331,1267.5,745.833Z" transform="translate(-1124.975 -284.495)" fill="#a8a8a8"/>
      <path id="Path_64" data-name="Path 64" d="M1268.667,747.167a19.127,19.127,0,0,0,3.667-2.75,28.482,28.482,0,0,0,3.833-5.25l1.5,3.25,7.787-2.75v12.684a3.165,3.165,0,0,0,2.629-.351c1.345-.838,1.378-2.273,2.75-3a2.555,2.555,0,0,1,2.693.445l5.812,6.458s-4.712,5.781-7.255,9.348-1.141,3.06-2.917,4.917-1.735,2.137-3.713,2.849a7.387,7.387,0,0,1-4.2,0l5.577-7.766s2.333-3.333,0-5.083S1268.667,747.167,1268.667,747.167Z" transform="translate(-1124.975 -284.495)" fill="#a8a8a8"/>
      <path id="Path_65" data-name="Path 65" d="M1259.083,779.833s4.052-2.62,5.667-2.62,2.333,2.12,10,1.286c3.083-1.833,6.817-7.019,9.735-11.3s2.6-5.7,2.6-5.7L1268.75,748a5.3,5.3,0,0,1-2.67-4.368c-.066-2.33.364-9.368.588-12.819.041-.638.271-.892.082-1.23a2.471,2.471,0,0,0-1.417-1.167c-.855-.128-2.66-.575-3.417-1.583a7.438,7.438,0,0,1-1.917-4.5c-.375-2.646.8-3.826-.333-6.5s-4.888-5.5-4.888-5.5a26.913,26.913,0,0,1-2.112,8,18.881,18.881,0,0,1-5.167,6s.2.383.63,1.323c2.62,4.927,3.154,7.477,2.7,11.927,2.333,3.25,5.25,7.5,6.417,12.5C1260.083,759.833,1259.083,779.833,1259.083,779.833Z" transform="translate(-1124.975 -284.495)" fill="#a8a8a8"/>
      <path id="Path_66" data-name="Path 66" d="M1259.083,781.083l5.705-3.224s.969,1.292,3.875,1.615a42.64,42.64,0,0,0,6.781,0,11.589,11.589,0,0,0,4.389,2.943,17.2,17.2,0,0,0,5.943.609l14.031,15.251s.534.588.442.973-.809.566-.809.566l-7.608,4.1s-8.7,4.857-16.389,8.816c-5.288,2.724-9.966,4.934-10.656,4.521-1.615-.969-2.1-2.52-3.955-4.521s-3.471-3.482-3.471-3.482l1.138-8.5-1.138-3.194Z" transform="translate(-1124.975 -284.495)" fill="#a8a8a8"/>
      <path id="Path_67" data-name="Path 67" d="M1323.583,754.5c-.25,5.083-.333,17.667-.333,17.667l-11.833,10.75a80.231,80.231,0,0,0,11.833,6.417c3.833,7.167,8.344,14.979,11.25,14.333-4.2,1.937-26.333,15.917-28.833,16.583-2.26-.323-3.25,4.917-3.25,4.917s-9.3,18.167-14.792,23.333-8.125,7.875-8.125,7.875-8.81-16.812-13.42-27.25-5.018-14.5-5.018-14.5,2.438,3.625,3.875,3.688c1.226.053,27.388-13.794,35.314-18,1.06-.563.782-.451.832-1.141a3.213,3.213,0,0,0-.634-1.621l-14.283-15.629s4.167-4.333,6.583-6.5c1.453-.505,3.75.583,5.75,0s6.333-2.167,6.333-2.167a5.32,5.32,0,0,1,.75-4.417c1-3.5,11.5-17.917,11.5-17.917S1322.667,753.417,1323.583,754.5Z" transform="translate(-1124.975 -284.496)" fill="#a8a8a8"/>
      <path id="Path_68" data-name="Path 68" d="M1251.333,622.833,1266,634.167a20.437,20.437,0,0,0-2.833,7.833c-.323,3.875.9,9.667-2.333,9.667s-6.352-1.132-12.167,0a61.36,61.36,0,0,0-11.5,3.667,13.349,13.349,0,0,0-4.167-4.7,19.1,19.1,0,0,0-6.333-2.26Z" transform="translate(-1124.975 -284.495)" fill="#a8a8a8"/>
      <path id="Path_69" data-name="Path 69" d="M1277.333,667.75c-.646,2.26-2.125,2.849-8.167,8.5s-7.083,7.5-12.583,12.25-7.75,4.75-9.417,7.25-2.083,9.25-2.083,9.25-6.5-3.1-13.583-7.083-10.667-4.75-14.917-9.417c-2.333-3.333-.917-9.5-2.083-10.917s-.492-.6-1.167-1.417,1.667-2,1.667-2a39.363,39.363,0,0,1,9.667-9.333c6.325-4.346,7.378-5.683,12.917-8.417,2.249-1.11,4.718-1.781,6.083-2.333a36.392,36.392,0,0,1,6.833-1.583,54.288,54.288,0,0,1,9.768.4C1261.237,652.9,1277.979,665.49,1277.333,667.75Z" transform="translate(-1124.974 -284.495)" fill="#a8a8a8"/>
      <path id="Path_152" data-name="Path 152" d="M1266.5,634.833s1.53.958,6.833,4.667c1.782,1.246,4.186,1.807,6.583,3.25a83.211,83.211,0,0,1,7.667,5.333S1278,660,1277.8,667c-1.8-2.6-10.8-10.6-16.2-14a3.453,3.453,0,0,0,2.066-2.752c.716-3,.015-7.049.8-10.25A18.81,18.81,0,0,1,1266.5,634.833Z" transform="translate(-1124.974 -284.495)" fill="#a8a8a8"/>
      <path id="Path_70" data-name="Path 70" d="M1225.833,649.417s4.656.229,6.917,2.167a16.937,16.937,0,0,1,3.583,4.5,119.85,119.85,0,0,0-11.667,7.417c-6.044,4.37-9.25,8.667-17.167,17.167S1179.333,715,1179.333,715l-9.833-6.417s15.925-16.235,30-30.667S1225.833,649.417,1225.833,649.417Z" transform="translate(-1124.974 -284.495)" fill="#a8a8a8"/>
      <path id="Path_71" data-name="Path 71" d="M1168.5,709.333l10,6.417-7.75,12.833-13.833-7.5Z" transform="translate(-1124.974 -284.495)" fill="#a8a8a8"/>
      <path id="Path_72" data-name="Path 72" d="M1156.083,722.083l3.5,1.75-20.833,20.083-3.25-1.833Z" transform="translate(-1124.974 -284.495)" fill="#a8a8a8"/>
      <path id="Path_73" data-name="Path 73" d="M1212.25,677.083c2.667.083,1.917,4.75,2.25,9s7,8.419,17.25,14.169c4.25,2.5,7.417,3.417,7.417,3.917-.137.8-.917,4.333-5.667,6.833-5,3.75-4.711,11.36-3.5,15.75a34.86,34.86,0,0,0-7.167,6.581c-4.763,5.086-5.74,7.32-9.385,12.236s-5.2,7.43-5.2,7.43l-7.667-7.43s-7.49-6.8-12.333-8.736-16.583-8-16.583-8,3.357-5.221,5.94-9.1,10.9-14.845,19.56-25.509S1208.333,681,1212.25,677.083Z" transform="translate(-1124.974 -284.495)" fill="#a8a8a8"/>
      <path id="Path_153" data-name="Path 153" d="M1242.75,705.752s-1.5,13.252-1.5,13c-1.811.745-4.646,4.4-7.25,6.25s-3.167,1.454-3.167,1.167c-1.5-3.833-1.333-11.917,3.167-14.917,3.674-1.5,4.371-4.938,6-6.25C1240.431,704.628,1241.256,705.337,1242.75,705.752Z" transform="translate(-1124.974 -284.495)" fill="#a8a8a8"/>
      <path id="Path_74" data-name="Path 74" d="M1277.583,669.5s-2.292,16.344-6.167,21.833-7.25,7.583-7.25,7.583-9.208,6.531-10.5,10.083-.81,4.526-2.667,7.917a31.225,31.225,0,0,1-4.939,6.373l-3.894-3.207,1.917-14.25,1.977.5s.814-8.969,2.106-10.583,2.487-1.093,9.841-7.656S1277.583,669.5,1277.583,669.5Z" transform="translate(-1124.975 -284.495)" fill="#a8a8a8"/>
      <path id="Path_75" data-name="Path 75" d="M1183.139,770.405c-12.175-5.223-43.311-26.127-43.311-26.127l20.256-20.362s5.785,3.546,13.167,7.167c6.5,3.188,14.5,6.386,18.5,9,8.207,5.367,16.083,14,16.083,14s.187,6.7-2.167,11.75c-1.652,3.546-2.509,6.08-4.417,7.667-.462.4-1.047,1.693-1.917,1.917-.89.229-2.215-.569-3.361-.548C1194.392,774.919,1191.6,774.035,1183.139,770.405Z" transform="translate(-1124.974 -284.495)" fill="#a8a8a8"/>
      <path id="Path_76" data-name="Path 76" d="M1200.333,776.667c8.583,2.333,55.417,19.75,55.417,19.75s2.667-20.75.583-39.75c-1.937-10.656-4-13.917-4-13.917s-3.167-4.094-3.167-7-.683-4.337-2.25-8.25a9.553,9.553,0,0,0-6.167-5.667c-1.167-.25-6.5,7.417-10.189,8.237s-8.561,7.263-8.561,7.263l-11.083,16.833S1210.667,771,1200.333,776.667Z" transform="translate(-1124.974 -284.495)" fill="#a8a8a8"/>
      <path id="Path_77" data-name="Path 77" d="M1207.583,781.333l46.872,16.546s-4.52,14.208-9.041,18.405A98.2,98.2,0,0,1,1233.79,825l-14.29-12.336a18.8,18.8,0,0,1-2.667,3.25,17.263,17.263,0,0,1-3.583,2.333,48.538,48.538,0,0,1-4.917-6.333,6.026,6.026,0,0,1-.75-4.25,15.354,15.354,0,0,0,4.75-8.833c.74-5.434.271-10.177-1.667-13.083S1207.583,781.333,1207.583,781.333Z" transform="translate(-1124.974 -284.496)" fill="#a8a8a8"/>
      <path id="Path_78" data-name="Path 78" d="M1200.209,777.859l4.958,2.391s7.5,5.667,6.667,14.75-2.573,8.2-4.833,11.75,4.667,11.667,6.083,12.417c2.333.417,6.417-5.417,6.417-5.417l13.417,11.5-28.354,13.938s-4.865-4.75-7.125-4.75S1176.313,838,1176.313,838s-3.94.005-5.312-1.125-.625-4.25-.625-4.25-.927.111-1.375-1.437c-.243-.844.012-3.3-.435-4.437-.937-2.39-1.44-1.456-1.44-3.75s.56-2.638,1.875-5.25,23.782-26.329,23.782-26.329l3.229-3.875Z" transform="translate(-1124.974 -284.496)" fill="#a8a8a8"/>
      <path id="Path_79" data-name="Path 79" d="M1163.813,788l16.438,14.063s3.8-5.132,8.375-10.375c1.387-1.587,3.985-3.092,5.188-4.75,4.521-6.234,4.688-9.625,4.688-9.625s-12.917-3.271-16.417-4.9c-1.75.25-13.2,3.75-15.458,4.4s-4.518,1.047-4.518,1.047.323,4.843,2.906,4.521,3.229,0,3.229,0,.131,2.694-.909,4.12S1163.813,788,1163.813,788Z" transform="translate(-1124.974 -284.495)" fill="#a8a8a8"/>
      <path id="Path_80" data-name="Path 80" d="M1136.917,775.833s14.583-5.667,20.333-3.083a7.625,7.625,0,0,1,2.274,2.2,5.562,5.562,0,0,1,2.059.463c.646.4.667,1.917.667,1.917s13.917-4.083,18.833-5.417c-1.75-1.417-22.851-13.754-22.851-13.754l-24.149-14.746-9.109,9.9Z" transform="translate(-1124.974 -284.495)" fill="#a8a8a8"/>
      <path id="Path_81" data-name="Path 81" d="M1141.917,785.75l-4.35-9.182s12.6-4.735,18.766-3.151a4.019,4.019,0,0,1,2.25,2.583s2.25-.182,2.75,1-.167,5.083,2,5.75a5.892,5.892,0,0,0,3.75,0s.3,2.49-1,3.75a3.815,3.815,0,0,1-3.833,0,18.249,18.249,0,0,0-8.917-3.75C1148.813,782.1,1141.917,785.75,1141.917,785.75Z" transform="translate(-1124.974 -284.495)" fill="#a8a8a8"/>
      <path id="Path_82" data-name="Path 82" d="M1142.667,786.583s6.125-3.323,10-3,6.271,1.229,9.958,4.417,17,14.813,17,14.813-7.875,8.063-10.687,11.875-3.687,6.438-3.687,8.125a4.5,4.5,0,0,0,1.563,3.563c.646.323,1,2.563,1,4.5a2.1,2.1,0,0,0,1.125,2.125,3.223,3.223,0,0,1-.045,1.378c-1.017.309-.955,1.622.045,2.5a13.618,13.618,0,0,0,5.25,2.563c2.375.625,20.855-4.1,24.407-2.488s4.655,2.925,4.655,2.925-4.053,1.987-10.625,7.875-15.25,16.313-15.25,16.313L1155,799.817h-4.566Z" transform="translate(-1124.974 -284.496)" fill="#a8a8a8"/>
      <path id="Path_83" data-name="Path 83" d="M1178.313,865.75s6.156-7.391,11.5-12.687a87.249,87.249,0,0,1,9.875-8.5s5.4-.854,8.625.438,3.521,5.646,2.875,8.875a50.508,50.508,0,0,0-1.187,9.313c.063,2.25,1.386,6.3,4.938,6.625s8.563-.25,12.688,2a128.263,128.263,0,0,1,11.563,7.938s-8.375,4.99-10.312,5.313-6.344,3.74-7.312,6-14,17.091-15.687,18.216-3.38,2.906-4.187,2.906-.875-1.935-.875-1.935l-7.187,2.938Z" transform="translate(-1124.974 -284.496)" fill="#a8a8a8"/>
      <path id="Path_84" data-name="Path 84" d="M1256.07,799.313c1.8,1,.055,7.875,0,10.563a5.282,5.282,0,0,0,3.055,3.375,65.866,65.866,0,0,0,1.625,7.75c.969,3.229,17.5,36.313,17.5,36.313s-10.062,8.938-16,11.438-11.992,4.687-11.992,4.687l-10.333,5.812s-5.488-3.937-9.926-6.937-5.667-2.471-8.812-2.875-4.562.125-6.437-.521-3.062-1.031-3.812-4.042,1.188-12.187,1.188-14.437-1.271-5.918-4-6.375a52.577,52.577,0,0,0-7.562-.332l9.25-4.856a220.021,220.021,0,0,0,21.5-10.312c9.547-5.422,13.781-8.146,16.688-11.375S1255.125,801.35,1256.07,799.313Z" transform="translate(-1124.974 -284.496)" fill="#a8a8a8"/>
      <path id="Union_2" data-name="Union 2" d="M-1034.391-147.334s.217.026.6.056c-1.08-.486-1.812-.89-1.812-.89l-.959-1.166s.833-.167,3-3.166.667-3.834-1.334-5.167-1.542-1-3.166,0-1.958,3-3.333,4-2.166,0-2.166,0l-6.445-4.4A192.738,192.738,0,0,1-1066.891-170l-.139-.147-.027-.02.005,0q-.98-1.031-2.018-2.073l-.467.305s-4.188-.187-4.25,3a2.786,2.786,0,0,1-.774-.28l0,.007c.287.382-3.569,1.578-4.646,2.1a4.255,4.255,0,0,1-2.678,0l.766-2.1s.191-1.531-1.913-2.3a6.161,6.161,0,0,0-2.547-.316,7.044,7.044,0,0,1-3.1-.45c-1.722-2.582-2.7-2.2-4.879-3.826s-1.913-1.913-3.826-2.678a9.891,9.891,0,0,1-2.392,0s-.1-.766,0-.861c2.461-2.1,6.088-2.536,8-2.791l-.2-.133s3.684-2.624,4.688-5.188a2.653,2.653,0,0,1,.322-.279q-.842-.673-1.684-1.338a3.049,3.049,0,0,1-.312.068l-11-7.462-10.905-6.791-10.016-7.454-.009.007-4.083-3s56.5-78.5,56.5-79c25.375,17.375,73.5,57.251,73.5,57.251a3.651,3.651,0,0,0-.862-.489l.488.364-.3.184,2.5,1.955.423-.224,34,26.793s-.036.079-.114.229l4.614,3.6s-5.875,11.542-12,21S-977.557-166-978.724-165.5s-2.167.167-4.167,1a80.291,80.291,0,0,0-8.5,4.167c-1.833,1.166-6.5,3.166-8.334,4.5s-3.958,2.25-5.166,3.334-2.833,3.333-4.5,3.833a67.167,67.167,0,0,1-11.5,2.166,19.252,19.252,0,0,0-8.5,2.833Z" transform="translate(1461.25 301.507)" fill="none" stroke="#fff" stroke-width="0.1"/>
      <path id="Union_3" data-name="Union 3" d="M-1035.766-165.421c-1.167.5-.333,4-2,3.167-1.293-.647-10.214-6.111-14.146-8.526-2.743,1.04-11.83,4.5-17.855,7.026-7.166,3-10.333,3.833-15.833,3.667a4.824,4.824,0,0,1,.39-.9h-2.578s-8.281-7.938-13.562-12.313-1.844-.594-7.75-5.25-15.875-13.375-15.875-13.375l20.5-27.273-.625.147,18-23.376.046.051,14.066-18.714,19.815-27.794,2.318-3.589a11.385,11.385,0,0,0,1.394.948l-.067.141,10.52,7.471,13.025,8.946-.181.181c2.248,1.6,6.254,4.424,7.929,5.463,2.391,1.482,2.583.957,2.583.957s-.192,3.635-2.583,4.018c-1.01.161-2.2,1.661-3.34,1.47a15.993,15.993,0,0,0-3.548,1.782c-1.626,1.244-2.1,1.244-2.2,2.105s.382.742,1.626,1.244,2.678.478,3.348.765,4.687,3.54,5.644,4.018c.176.088.216.193.157.313a7.776,7.776,0,0,0,3,1.7c1.244.1,3.73.67,4.114.574s1.243.86,1.339,2.009-.335,1.769.573,2.487,3.061.383,3.061.383l1.818-.383-.839.532c3.462-.339,7.319-.646,7.883-.74,1-.167,1.166-2.333,2.333-2.833s18.167,13.334,18.167,13.334l-.073.1c2.109,1.32,5.51,3.45,6.739,4.232,1.833,1.166,3.334-.833,3.334-.833s3.041-3.917,4.5-4.5,1.5.5,1.333,2.166-3.667,3.334-4.5,4.5.833,3.334.833,3.334l6.5,4-4.166,3.166-7.834,7.834-14.333,11.166-6,6-.2-.222a.856.856,0,0,1-.136.388,7.707,7.707,0,0,1-.991.75l.658.75a70.377,70.377,0,0,1-8,6c-3.709,2.25-6.667,2.334-6.834,3s-2.166,1.374-4,3.166a29.991,29.991,0,0,0-3.334,4l-1.833,4.667-12.479,15S-1034.6-165.921-1035.766-165.421Zm-13.7-126.1c1.593-3.339.041.008.041.008A.138.138,0,0,1-1049.462-291.518Z" transform="translate(1386.125 381.428)" fill="none" stroke="#fff" stroke-width="1"/>
      <path id="Union_4" data-name="Union 4" d="M-1038.271-106.29c-.61-.611-9.039.249-15.385-2.448a21.881,21.881,0,0,1-10-8.339c-.814-1.221-6.494-7.889-7.715-9.518-.94-1.253-6.58-3.543-9.13-4.533l-1.193,2.05.234.161-6.676,8.176-6.717-5.089s-7.327-4.274-8.548-4.274-21.574-16.485-21.574-16.485l1.938-1.962,42.318-44.735-.033-.023,24.9-26.174-.238-.016,29.563-32.262-.23-.071,1.546-1.366.52-.568.146-.021,10.62-9.38L-992.084-293s14.967,12.121,22.97,18.184l1.217.649,1.575,1.42a16.258,16.258,0,0,0,1.9,1.247,2.008,2.008,0,0,0-.231.262l10.128,9.134-.36.346,1.6,1.671a87.679,87.679,0,0,0,13-1.88c1.5-.371,2.9-.808,4.153-1.251l.213-.282,5.47-2.179.163-.089v.024l13.2-5.257s13.991,8.348,14.833,8.833.5-3.166,1.334-3.5,8.167,6.333,8.333,7.333-6,6.167-6,6.167L-909.418-241a11.1,11.1,0,0,0-2.854,1.645,13.957,13.957,0,0,0-1.813,3.521s-8.167,10.1-9.5,10.1a9.744,9.744,0,0,0-5.5.9,62.254,62.254,0,0,0-6.833,4c-2,1.166-1.75,2.667-3.667,5.666a13.6,13.6,0,0,0-4,6.333l-12.833,13-.031-.014c-1.775,1.842-4.314,4.376-6.778,6.48-4.45,3.8-6.657,4.6-8.657,6.2s-4.15,3.7-8,6.6c-1.793,1.351-3.6,2.646-5.023,3.644l-.511.756s-.739.311-1.715.787c-.335.229-.523.356-.523.356l-.049-.071a13.752,13.752,0,0,0-3.78,2.528,13.1,13.1,0,0,0-2.029,4.4,35.034,35.034,0,0,1-4,4.143c-2.571,2.3-4.714,3-5.857,3.857-1.039,2.474-.726,4.457-1.114,5a1.534,1.534,0,0,1-1.069.6l-2.393,3.369s-1.831-.763-2.442,0,0,3.053,0,3.053a125.325,125.325,0,0,0-11.4,9.566c-4.071,4.121-4.885,6.92-4.885,6.92l-.814,4.884s-9.823,16.5-10.746,16.5A.056.056,0,0,1-1038.271-106.29Z" transform="translate(1252.11 483.673)" fill="none" stroke="#fff" stroke-width="1"/>
      <path id="Union_5" data-name="Union 5" d="M-994.394-86.708c-3.294-7.457-5.835-14.7-7.018-18.231-1-1.005-1.7-1.644-1.7-1.644l1.138-8.5-2.5-4.75-.139-.514c-.069.606-.111.931-.111.931s-46.833-17.417-55.417-19.75q-.674-.643-1.36-1.209a5.585,5.585,0,0,1-1.422-.295,5.574,5.574,0,0,0-1.58-.293c-1.58.05-4.372-.834-12.833-4.465-10.068-4.319-33.1-19.359-40.773-24.437l-.032.033-6.834-3.917,18.571-18.045-.072-.039,18.667-19,.2.151c5.421-5.532,16.506-16.849,26.634-27.234,10.72-10.993,22.418-23.95,27.384-29.5-.14-.025-.218-.037-.218-.037L-1009.14-293l14.666,11.334s-.309.487-.724,1.286l1.223-.62s1.53.958,6.834,4.667c1.782,1.247,4.186,1.808,6.583,3.251,2.823,1.7,7.821,4.824,10.415,6.452,2.488-2.907,3.265-2.654,4.668-4.618,1.615-2.261,3.667-4.917,3.667-4.917s6.583,2.583,8.583,5.8,5.666,8.861,8.084,11.278c1.883,1.883,6.366,4.375,9.934,5.536.043-.132.066-.2.066-.2s7.834,2.4,13,1.75c0,1.292-5.125,6.511-6.417,9.417s-1.49,9.938-1.166,13.167,3.25,13.3,3.25,13.3l1.274,7.606.31.009,3.067,18.54h.081L-915.93-168s4.521,20.02,4.521,24.54-4.521,20.02-4.521,20.02-4.378,7.725-9.544,11.277a3.172,3.172,0,0,1-1.556.534c-5.98,3.192-25.442,15.426-27.777,16.049-2.261-.323-3.25,4.917-3.25,4.917s-9.3,18.166-14.791,23.333-8.125,7.875-8.125,7.875S-989.785-76.271-994.394-86.708Z" transform="translate(1135.5 631.34)" fill="none" stroke="#fff" stroke-width="1"/>
      <path id="Union_6" data-name="Union 6" d="M-1069.528-164.138l-.087.055s-1.114-3.408-2.781-8.483l-.178.212-22.371-64.247h-4.566l-7.8-14.427c-.461.221-.725.361-.725.361l-4.564-10.081c-.282.1-.436.164-.436.164l-11.943-22.513,9.109-9.9,24.15,14.746s17.809,10.413,22.062,13.205c5.993,2.173,18.2,5.945,18.2,5.945a3.321,3.321,0,0,1-.042.338l57.877,21.016s-.035.271-.1.756c1.539,1.315-.106,7.848-.159,10.452a5.28,5.28,0,0,0,3.055,3.375,65.907,65.907,0,0,0,1.625,7.751c.969,3.228,17.5,36.312,17.5,36.312s-10.063,8.937-16,11.437-11.992,4.687-11.992,4.687l-14.592,8.563s-.131,0-.378-.009c-2.463,1.372-5.372,2.9-6.415,3.072-1.937.323-6.343,3.739-7.312,6s-14,17.091-15.687,18.216-3.38,2.906-4.188,2.906-.875-1.935-.875-1.935l-7.187,2.938Zm-11.987-36-.272-.812A1.827,1.827,0,0,0-1081.515-200.138Z" transform="translate(1124.974 751.923)" fill="none" stroke="#fff" stroke-width="1"/>
    </g>
    <g id="Group_1" data-name="Group 1" transform="translate(-1114 -364)">
      <path id="Subtraction_2" data-name="Subtraction 2" d="M26.5,80h0c-.069-.09-6.96-9.153-13.587-20.01A139.9,139.9,0,0,1,3.767,42.755C1.07,36.47-.189,31.377.023,27.617.008,27.241,0,26.865,0,26.5A26.507,26.507,0,0,1,50.918,16.185,26.332,26.332,0,0,1,53,26.5c0,.365-.008.742-.023,1.118.213,3.759-1.047,8.852-3.744,15.138a139.9,139.9,0,0,1-9.145,17.234C33.462,70.845,26.569,79.909,26.5,80ZM27,4.5A22.5,22.5,0,1,0,49.5,27,22.525,22.525,0,0,0,27,4.5Z" transform="translate(1651 424)" fill="#366273"/>
      <rect id="Rectangle_1" data-name="Rectangle 1" width="116" height="36" rx="3" transform="translate(1620 504)" fill="#da2442"/>
      <text id="شمال_غزة" data-name="شمال غزة" transform="translate(1629 527)" fill="#fff" font-size="16" font-family="Tajawal-Regular, Tajawal"><tspan x="0" y="0">شمال غزة</tspan></text>
      <text id="_222" data-name="222" transform="translate(1660 459)" fill="#366273" font-size="25" font-family="Tajawal-Bold, Tajawal" font-weight="700"><tspan x="0" y="0">222</tspan></text>
      <rect id="Rectangle_2" data-name="Rectangle 2" width="24" height="22" rx="3" transform="translate(1703 511)" fill="#fff"/>
      <text id="_1" data-name="+1" transform="translate(1715 526)" fill="#366273" font-size="12" font-family="Tajawal-Bold, Tajawal" font-weight="700"><tspan x="-7.998" y="0">+12</tspan></text>
    </g>
    <g id="Group_80" data-name="Group 80" transform="translate(-1245 -245)">
      <path id="Subtraction_2-2" data-name="Subtraction 2" d="M26.5,80h0c-.069-.09-6.96-9.153-13.587-20.01A139.9,139.9,0,0,1,3.767,42.755C1.07,36.47-.189,31.377.023,27.617.008,27.241,0,26.865,0,26.5A26.507,26.507,0,0,1,50.918,16.185,26.332,26.332,0,0,1,53,26.5c0,.365-.008.742-.023,1.118.213,3.759-1.047,8.852-3.744,15.138a139.9,139.9,0,0,1-9.145,17.234C33.462,70.845,26.569,79.909,26.5,80ZM27,4.5A22.5,22.5,0,1,0,49.5,27,22.525,22.525,0,0,0,27,4.5Z" transform="translate(1670 424)" fill="#366273"/>
      <rect id="Rectangle_1-2" data-name="Rectangle 1" width="70" height="36" rx="3" transform="translate(1666 504)" fill="#da2442"/>
      <text id="غزة" transform="translate(1697 527)" fill="#fff" font-size="16" font-family="Tajawal-Regular, Tajawal"><tspan x="-22.736" y="0">غزة</tspan></text>
      <text id="_222-2" data-name="222" transform="translate(1679 458)" fill="#366273" font-size="25" font-family="Tajawal-Bold, Tajawal" font-weight="700"><tspan x="0" y="0">222</tspan></text>
      <rect id="Rectangle_2-2" data-name="Rectangle 2" width="24" height="22" rx="3" transform="translate(1703 511)" fill="#fff"/>
      <text id="_1-2" data-name="+1" transform="translate(1715 526)" fill="#366273" font-size="12" font-family="Tajawal-Bold, Tajawal" font-weight="700"><tspan x="-7.998" y="0">+12</tspan></text>
    </g>
    <g id="Group_81" data-name="Group 81" transform="translate(-1482 111)">
      <path id="Subtraction_2-3" data-name="Subtraction 2" d="M26.5,80h0c-.069-.09-6.96-9.153-13.587-20.01A139.9,139.9,0,0,1,3.767,42.755C1.07,36.47-.189,31.377.023,27.617.008,27.241,0,26.865,0,26.5A26.507,26.507,0,0,1,50.918,16.185,26.332,26.332,0,0,1,53,26.5c0,.365-.008.742-.023,1.118.213,3.759-1.047,8.852-3.744,15.138a139.9,139.9,0,0,1-9.145,17.234C33.462,70.845,26.569,79.909,26.5,80ZM27,4.5A22.5,22.5,0,1,0,49.5,27,22.525,22.525,0,0,0,27,4.5Z" transform="translate(1673 424)" fill="#366273"/>
      <rect id="Rectangle_1-3" data-name="Rectangle 1" width="73" height="36" rx="3" transform="translate(1663 504)" fill="#da2442"/>
      <text id="رفح" transform="translate(1697 527)" fill="#fff" font-size="16" font-family="Tajawal-Regular, Tajawal"><tspan x="-24.848" y="0">رفح</tspan></text>
      <text id="_222-3" data-name="222" transform="translate(1682 459)" fill="#366273" font-size="25" font-family="Tajawal-Bold, Tajawal" font-weight="700"><tspan x="0" y="0">222</tspan></text>
      <rect id="Rectangle_2-3" data-name="Rectangle 2" width="24" height="22" rx="3" transform="translate(1703 511)" fill="#fff"/>
      <text id="_1-3" data-name="+1" transform="translate(1715 526)" fill="#366273" font-size="12" font-family="Tajawal-Bold, Tajawal" font-weight="700"><tspan x="-7.998" y="0">+12</tspan></text>
    </g>
    <g id="Group_82" data-name="Group 82" transform="translate(-1385 -38)">
      <path id="Subtraction_2-4" data-name="Subtraction 2" d="M26.5,80h0c-.069-.09-6.96-9.153-13.587-20.01A139.9,139.9,0,0,1,3.767,42.755C1.07,36.47-.189,31.377.023,27.617.008,27.241,0,26.865,0,26.5A26.507,26.507,0,0,1,50.918,16.185,26.332,26.332,0,0,1,53,26.5c0,.365-.008.742-.023,1.118.213,3.759-1.047,8.852-3.744,15.138a139.9,139.9,0,0,1-9.145,17.234C33.462,70.845,26.569,79.909,26.5,80ZM27,4.5A22.5,22.5,0,1,0,49.5,27,22.525,22.525,0,0,0,27,4.5Z" transform="translate(1656 424)" fill="#366273"/>
      <rect id="Rectangle_1-4" data-name="Rectangle 1" width="107" height="36" rx="3" transform="translate(1629 504)" fill="#da2442"/>
      <text id="خانيونس" transform="translate(1697 527)" fill="#fff" font-size="16" font-family="Tajawal-Regular, Tajawal"><tspan x="-58.816" y="0">خانيونس</tspan></text>
      <text id="_222-4" data-name="222" transform="translate(1665 459)" fill="#366273" font-size="25" font-family="Tajawal-Bold, Tajawal" font-weight="700"><tspan x="0" y="0">222</tspan></text>
      <rect id="Rectangle_2-4" data-name="Rectangle 2" width="24" height="22" rx="3" transform="translate(1703 511)" fill="#fff"/>
      <text id="_1-4" data-name="+1" transform="translate(1715 526)" fill="#366273" font-size="12" font-family="Tajawal-Bold, Tajawal" font-weight="700"><tspan x="-7.998" y="0">+12</tspan></text>
    </g>
    <g id="Group_83" data-name="Group 83" transform="translate(-1551 -263)">
      <path id="Subtraction_2-5" data-name="Subtraction 2" d="M26.5,80h0c-.069-.09-6.96-9.153-13.587-20.01A139.9,139.9,0,0,1,3.767,42.755C1.07,36.47-.189,31.377.023,27.617.008,27.241,0,26.865,0,26.5A26.507,26.507,0,0,1,50.918,16.185,26.332,26.332,0,0,1,53,26.5c0,.365-.008.742-.023,1.118.213,3.759-1.047,8.852-3.744,15.138a139.9,139.9,0,0,1-9.145,17.234C33.462,70.845,26.569,79.909,26.5,80ZM27,4.5A22.5,22.5,0,1,0,49.5,27,22.525,22.525,0,0,0,27,4.5Z" transform="translate(1656 424)" fill="#366273"/>
      <rect id="Rectangle_1-5" data-name="Rectangle 1" width="107" height="36" rx="3" transform="translate(1629 504)" fill="#da2442"/>
      <text id="الوسطى" transform="translate(1697 527)" fill="#fff" font-size="16" font-family="Tajawal-Regular, Tajawal"><tspan x="-56.896" y="0">الوسطى</tspan></text>
      <text id="_222-5" data-name="222" transform="translate(1665 459)" fill="#366273" font-size="25" font-family="Tajawal-Bold, Tajawal" font-weight="700"><tspan x="0" y="0">222</tspan></text>
      <rect id="Rectangle_2-5" data-name="Rectangle 2" width="24" height="22" rx="3" transform="translate(1703 511)" fill="#fff"/>
      <text id="_1-5" data-name="+1" transform="translate(1715 526)" fill="#366273" font-size="12" font-family="Tajawal-Bold, Tajawal" font-weight="700"><tspan x="-7.998" y="0">+12</tspan></text>
    </g>
  </g>
</svg>
